<svg id="Layer_1" data-name="Layer 1" xmlns="http://www.w3.org/2000/svg" viewBox="0 0 211.63 21.06"><defs><style>.cls-1{fill:#2b2b2b;}.cls-2{fill:#dd584e;}</style></defs><title>logo</title><path class="cls-1" d="M18,2.06V6.23H11.77V23.05H7.54V6.23H1.27V2.06Z" transform="translate(-1.27 -2)"/><path class="cls-1" d="M49.06,2.06V6.23H42.79V23.05H38.56V6.23H32.28V2.06Z" transform="translate(-1.27 -2)"/><path class="cls-1" d="M55.42,2.06v21h-4.2v-21Z" transform="translate(-1.27 -2)"/><path class="cls-1" d="M98.59,12.52q0,6.57-5.2,9.23a12,12,0,0,1-5.27,1.29q-6.57,0-9.23-5.25a11.76,11.76,0,0,1-1.29-5.27,11.89,11.89,0,0,1,1.29-5.25q2.67-5.21,9.23-5.22,7.08,0,9.51,6L94,10.27a5.69,5.69,0,0,0-5.9-4,5.69,5.69,0,0,0-5.55,3.16,6.76,6.76,0,0,0-.78,3.12,7.12,7.12,0,0,0,.78,3.18,5.68,5.68,0,0,0,5.55,3.18A6.25,6.25,0,0,0,93,16.78H88.12V12.52Z" transform="translate(-1.27 -2)"/><path class="cls-1" d="M137.58,10.43q0,4.71-3.45,6.92l2.08,5.71h-4.47l-1.59-4.29q-.61.06-1,.06H125v4.23h-4.2V2h8.43a9.11,9.11,0,0,1,4.2,1.08Q137.58,5.17,137.58,10.43Zm-8.39,4.2a4.89,4.89,0,0,0,2.1-.51,3.81,3.81,0,0,0,2.1-3.69,3.72,3.72,0,0,0-2.1-3.67,4.49,4.49,0,0,0-2.1-.57H125v8.43Z" transform="translate(-1.27 -2)"/><path class="cls-1" d="M156.56,10.43q0,4.71-3.45,6.92l2.08,5.71h-4.47l-1.59-4.29q-.61.06-1,.06h-4.23v4.23h-4.2V2h8.43a9.11,9.11,0,0,1,4.2,1.08Q156.56,5.17,156.56,10.43Zm-8.39,4.2a4.89,4.89,0,0,0,2.1-.51,3.81,3.81,0,0,0,2.1-3.69,3.72,3.72,0,0,0-2.1-3.67,4.49,4.49,0,0,0-2.1-.57h-4.23v8.43Z" transform="translate(-1.27 -2)"/><path class="cls-1" d="M195.42,2.06v4.2H184.89v4.18h8.82v4.2h-8.82v8.43h-4.2v-21Z" transform="translate(-1.27 -2)"/><path class="cls-1" d="M25.24,2.06l-10.53,21h21ZM21.57,18.81l3.68-8.09,3.63,8.07Z" transform="translate(-1.27 -2)"/><path class="cls-2" d="M70.77,8.88H63.42l3.68,7.35Z" transform="translate(-1.27 -2)"/><path class="cls-1" d="M108,2.06l-10.53,21h21Zm-3.68,16.75L108,10.72l3.63,8.07Z" transform="translate(-1.27 -2)"/><path class="cls-1" d="M167.09,2.06l-10.53,21h21Zm-3.68,16.75,3.68-8.09,3.63,8.07Z" transform="translate(-1.27 -2)"/><path class="cls-1" d="M202.42,2.06l-10.53,21h21Zm-3.68,16.75,3.68-8.09,3.63,8.07Z" transform="translate(-1.27 -2)"/></svg>